<?xml version="1.0" encoding="UTF-8" standalone="no"?>
<svg width="44px" height="35px" viewBox="0 0 44 35" version="1.1" xmlns="http://www.w3.org/2000/svg" xmlns:xlink="http://www.w3.org/1999/xlink" xmlns:sketch="http://www.bohemiancoding.com/sketch/ns">
    <!-- Generator: Sketch 3.4.4 (17249) - http://www.bohemiancoding.com/sketch -->
    <title>mark</title>
    <desc>Created with Sketch.</desc>
    <defs></defs>
    <g id="Page-1" stroke="none" stroke-width="1" fill="none" fill-rule="evenodd" sketch:type="MSPage">
        <g id="mark" sketch:type="MSArtboardGroup" fill="#ffffff">
            <path d="M10.9825119,0 C3.56756757,0 0,4.26709062 0,11.4022258 L5.17647059,11.4022258 C5.24642289,7.27503975 6.92527822,5.03656598 10.7027027,5.03656598 L11.6120827,5.03656598 L8.18441971,33.6470588 L14.5500795,33.6470588 L17.6279809,5.03656598 L25.9523052,5.03656598 L25.9523052,26.1621622 C25.9523052,32.0381558 28.6804452,34.4864865 33.7170111,34.4864865 C37.9841017,34.4864865 40.1526232,32.8775835 41.9014308,29.4499205 L38.6836248,26.2321145 C37.7742448,28.0508744 36.9348172,29.3799682 34.9761526,29.3799682 C33.0874404,29.3799682 32.317965,28.1208267 32.317965,25.3227345 L32.317965,5.03656598 L39.8028617,5.03656598 L39.8028617,0 L10.9825119,0 Z" id="π" sketch:type="MSShapeGroup"></path>
        </g>
    </g>
</svg>
