<?xml version="1.0" encoding="utf-8"?>
<!-- Generator: Adobe Illustrator 16.0.0, SVG Export Plug-In . SVG Version: 6.00 Build 0)  -->
<!DOCTYPE svg PUBLIC "-//W3C//DTD SVG 1.1//EN" "http://www.w3.org/Graphics/SVG/1.1/DTD/svg11.dtd">
<svg version="1.1" id="Layer_1" xmlns:sketch="http://www.bohemiancoding.com/sketch/ns"
	 xmlns="http://www.w3.org/2000/svg" xmlns:xlink="http://www.w3.org/1999/xlink" x="0px" y="0px" width="24px" height="24px"
	 viewBox="0 0 24 24" enable-background="new 0 0 24 24" xml:space="preserve">
<title>category-astronomy</title>
<desc>Created with Sketch.</desc>
<path fill="#101010" d="M12,3.125c-4.894,0-8.875,3.981-8.875,8.875S7.106,20.875,12,20.875s8.875-3.981,8.875-8.875
	S16.894,3.125,12,3.125z M12,4.875c3.034,0,5.625,1.91,6.65,4.588l-0.306,0.366c-0.943,1.132-2.579,2.489-5.868,1.213
	c-2.201-0.853-4.422-0.734-5.943,0.319c-0.682,0.473-1.199,1.118-1.541,1.893C4.919,12.847,4.875,12.429,4.875,12
	C4.875,8.071,8.071,4.875,12,4.875z M12,19.125c-0.625,0-1.228-0.089-1.806-0.24l0.067-0.185c0.059-0.162,1.526-3.962,7.639-2.711
	C16.617,17.88,14.451,19.125,12,19.125z M18.625,14.605l-0.356-0.074c-7.505-1.565-9.402,3.617-9.421,3.67l-0.053,0.153
	c-1.133-0.574-2.092-1.439-2.778-2.501l-0.001-0.114c-0.016-1.424,0.458-2.511,1.374-3.145c1.11-0.771,2.809-0.829,4.546-0.154
	c2.885,1.118,5.282,0.696,7.146-1.217c0.027,0.255,0.044,0.514,0.044,0.776C19.125,12.92,18.943,13.798,18.625,14.605z"/>
</svg>
