<?xml version="1.0" encoding="UTF-8" standalone="no"?>
<svg width="16px" height="16px" viewBox="0 0 16 16" version="1.1" xmlns="http://www.w3.org/2000/svg" xmlns:xlink="http://www.w3.org/1999/xlink">
    <!-- Generator: Sketch 3.6.1 (26313) - http://www.bohemiancoding.com/sketch -->
    <title>category-astronomy</title>
    <desc>Created with Sketch.</desc>
    <defs></defs>
    <g id="Page-1" stroke="none" stroke-width="1" fill="none" fill-rule="evenodd">
        <g id="category-astronomy" transform="translate(-4.000000, -4.000000)" fill="#FFFFFF">
            <path d="M12,18.25 L12,18.25 C15.4517797,18.25 18.25,15.4517797 18.25,12 C18.25,8.54822031 15.4517797,5.75 12,5.75 C8.54822031,5.75 5.75,8.54822031 5.75,12 C5.75,15.4517797 8.54822031,18.25 12,18.25 L12,18.25 Z M12,20 L12,20 C7.581722,20 4,16.418278 4,12 C4,7.581722 7.581722,4 12,4 C16.418278,4 20,7.581722 20,12 C20,16.418278 16.418278,20 12,20 L12,20 Z" id="Oval-5"></path>
            <path d="M10.2632315,18.6953982 C10.2860319,18.6301243 10.3516581,18.483843 10.4679179,18.2837621 C10.6698709,17.9362048 10.9382986,17.5859925 11.2806366,17.2582657 C12.6760625,15.9223975 14.818369,15.3436793 17.9617876,15.9999718 L18.2683518,14.5316332 C14.6489575,13.775965 12.0022006,14.4909543 10.2433514,16.1747347 C9.46984258,16.9152298 9.03442548,17.6645745 8.84713698,18.2007506 L10.2632315,18.6953982 L10.2632315,18.6953982 Z" id="Path-11"></path>
            <path d="M6.84044113,15.7798743 C6.42808654,12.4929398 8.65093257,11.1661971 11.9344147,12.4401797 C15.2643908,13.7322019 17.6942095,12.9516095 19.4970208,10.7892174 L18.3449033,9.82868365 C16.9340498,11.5209397 15.1714403,12.0871875 12.477001,11.041752 C8.2202335,9.39013717 4.78434803,11.4409026 5.35210737,15.9665897 L6.84044113,15.7798743 L6.84044113,15.7798743 Z" id="Path-10"></path>
        </g>
    </g>
</svg>