<?xml version="1.0" encoding="UTF-8" standalone="no"?>
<svg width="15px" height="12px" viewBox="0 0 15 12" version="1.1" xmlns="http://www.w3.org/2000/svg" xmlns:xlink="http://www.w3.org/1999/xlink">
    <!-- Generator: Sketch 3.6.1 (26313) - http://www.bohemiancoding.com/sketch -->
    <title>category-mathematics</title>
    <desc>Created with Sketch.</desc>
    <defs></defs>
    <g id="Page-1" stroke="none" stroke-width="1" fill="none" fill-rule="evenodd">
        <g id="category-mathematics" transform="translate(-4.000000, -6.000000)" fill="#FFFFFF">
            <path d="M8.02799187,6.00345588 C5.17787419,5.90888026 4.91013902,7.33763247 4.91013902,9.61349454 L6.65111562,9.63691684 C6.67342799,8.32048682 7.14080963,7.8911184 8.34567779,7.8911184 L8.63573864,7.8911184 L7.21763994,17.0190678 L9.55307553,17.0571468 L10.6750647,7.99640913 L13.1194263,8.15491871 L13.0373041,14.3551435 C13.0373041,16.2293828 14.148073,17 15.7545639,17 C17.1156187,17 17.8073022,16.4868154 18.3651116,15.3935091 L17.3387424,14.36714 C17.0486815,14.9472617 16.7809331,15.3711968 16.1561866,15.3711968 C15.5537525,15.3711968 15.3083164,14.969574 15.3083164,14.0770791 L15.3114922,7.96750579 L17.7494658,8.15491871 L17.6957404,6 L8.02799187,6.00345588 Z" id="π"></path>
        </g>
    </g>
</svg>