<?xml version="1.0" encoding="UTF-8" standalone="no"?>
<svg width="12px" height="13px" viewBox="0 0 12 13" version="1.1" xmlns="http://www.w3.org/2000/svg" xmlns:xlink="http://www.w3.org/1999/xlink">
    <!-- Generator: Sketch 3.6.1 (26313) - http://www.bohemiancoding.com/sketch -->
    <title>category-computer-science</title>
    <desc>Created with Sketch.</desc>
    <defs></defs>
    <g id="Page-1" stroke="none" stroke-width="1" fill="none" fill-rule="evenodd">
        <g id="category-computer-science" transform="translate(-6.000000, -6.000000)" fill="#FFFFFF">
            <path d="M7,6 C6.33333333,6 6,6.33333333 6,7 L6,15 C6,15.4166667 6.33333333,15.75 7,16 L10.4835208,16.0835667 L10.5132264,17.1504616 L8,19 C8.27777778,18.9166667 16,19 16,19 C15.75,18.6527778 13.4596773,17.1998424 13.4596773,17.1998424 L13.4627636,15.9799828 L17,16 C17.6666667,15.75 18,15.4166667 18,15 L18,7 C18,6.33333333 17.6666667,6 17,6 L7,6 Z M16,14 L8,14 L8,8 L16,8 L16,14 Z" id="computer"></path>
        </g>
    </g>
</svg>