<?xml version="1.0" encoding="UTF-8" standalone="no"?>
<svg width="22px" height="19px" viewBox="0 0 22 19" version="1.1" xmlns="http://www.w3.org/2000/svg" xmlns:xlink="http://www.w3.org/1999/xlink">
    <!-- Generator: Sketch 3.6.1 (26313) - http://www.bohemiancoding.com/sketch -->
    <title>category-physics</title>
    <desc>Created with Sketch.</desc>
    <defs></defs>
    <g id="Page-1" stroke="none" stroke-width="1" fill="none" fill-rule="evenodd">
        <g id="category-physics" transform="translate(-1.000000, -2.000000)">
            <g id="Group" transform="translate(12.000000, 12.000000) rotate(-330.000000) translate(-12.000000, -12.000000) translate(1.000000, 1.000000)">
                <circle id="Oval-4" fill="#FFFFFF" cx="11" cy="11" r="1.5"></circle>
                <path d="M3.79207897,3.79207897 C1.95489901,5.62925894 3.67482738,10.3278446 7.63364652,14.2866637 C11.5924657,18.2454828 16.2910513,19.9654112 18.1282312,18.1282312 C19.9654112,16.2910513 18.2454828,11.5924657 14.2866637,7.63364652 C10.3278446,3.67482738 5.62925894,1.95489901 3.79207897,3.79207897 Z" id="Oval-1" stroke="#FFFFFF" stroke-width="1.5" transform="translate(10.960155, 10.960155) scale(-1, 1) rotate(45.000000) translate(-10.960155, -10.960155) "></path>
                <path d="M3.79207897,3.79207897 C1.95489901,5.62925894 3.67482738,10.3278446 7.63364652,14.2866637 C11.5924657,18.2454828 16.2910513,19.9654112 18.1282312,18.1282312 C19.9654112,16.2910513 18.2454828,11.5924657 14.2866637,7.63364652 C10.3278446,3.67482738 5.62925894,1.95489901 3.79207897,3.79207897 Z" id="Oval-1" stroke="#FFFFFF" stroke-width="1.5" transform="translate(10.960155, 10.960155) scale(-1, 1) rotate(-15.000000) translate(-10.960155, -10.960155) "></path>
                <path d="M3.79207897,3.79207897 C1.95489901,5.62925894 3.67482738,10.3278446 7.63364652,14.2866637 C11.5924657,18.2454828 16.2910513,19.9654112 18.1282312,18.1282312 C19.9654112,16.2910513 18.2454828,11.5924657 14.2866637,7.63364652 C10.3278446,3.67482738 5.62925894,1.95489901 3.79207897,3.79207897 Z" id="Oval-1" stroke="#FFFFFF" stroke-width="1.5" transform="translate(10.960155, 10.960155) rotate(-15.000000) translate(-10.960155, -10.960155) "></path>
            </g>
        </g>
    </g>
</svg>