<?xml version="1.0" encoding="UTF-8" standalone="no"?>
<svg width="48px" height="48px" viewBox="0 0 48 48" version="1.1" xmlns="http://www.w3.org/2000/svg" xmlns:xlink="http://www.w3.org/1999/xlink">
    <!-- Generator: Sketch 3.6.1 (26313) - http://www.bohemiancoding.com/sketch -->
    <title>code</title>
    <desc>Created with Sketch.</desc>
    <defs>
        <path d="M19,0 L2.99428189,0 C1.3405687,0 0,1.34420165 0,3.00235843 L0,30.9976416 C0,32.6566876 1.34058566,34 2.99428189,34 L26.0057181,34 C27.6594313,34 29,32.6557983 29,30.9976416 L29,6.50117921 L29,10 L19,-9.99200722e-16 Z" id="path-1"></path>
    </defs>
    <g id="Page-1" stroke="none" stroke-width="1" fill="none" fill-rule="evenodd">
        <g id="code">
            <g id="Group" transform="translate(10.000000, 6.000000)">
                <mask id="mask-2" fill="white">
                    <use xlink:href="#path-1"></use>
                </mask>
                <use id="Mask" stroke="#7ABEE0" stroke-width="2" xlink:href="#path-1"></use>
                <path d="M17,-3 L32,12 L21.0000202,12 C18.7908701,12 17,10.2055487 17,7.99997976 L17,-3 Z" id="Rectangle-218" stroke="#7ABEE0" stroke-width="2" mask="url(#mask-2)"></path>
                <path d="M12.8502543,25 L8,20.56841 L13,16" id="Path-116" stroke="#7ABEE0" stroke-width="2" mask="url(#mask-2)"></path>
                <path d="M21.8502543,25 L17,20.56841 L22,16" id="Path-116" stroke="#7ABEE0" stroke-width="2" mask="url(#mask-2)">
                    <g transform="translate(19.500000, 20.500000) scale(-1, 1) translate(-19.500000, -20.500000) "></g>
                </path>
            </g>
        </g>
    </g>
</svg>