<?xml version="1.0" encoding="UTF-8" standalone="no"?>
<svg width="48px" height="48px" viewBox="0 0 48 48" version="1.1" xmlns="http://www.w3.org/2000/svg" xmlns:xlink="http://www.w3.org/1999/xlink">
    <!-- Generator: Sketch 3.6.1 (26313) - http://www.bohemiancoding.com/sketch -->
    <title>document</title>
    <desc>Created with Sketch.</desc>
    <defs>
        <path d="M18.9264706,0 L3.0066456,0 C1.34107717,0 0,1.34420165 0,3.00235843 L0,30.9976416 C0,32.6566876 1.34612109,34 3.0066456,34 L25.5933544,34 C27.2589228,34 28.6,32.6557983 28.6,30.9976416 L28.6,10.35 L18.9264706,1.72084569e-15 Z" id="path-1"></path>
    </defs>
    <g id="Page-1" stroke="none" stroke-width="1" fill="none" fill-rule="evenodd">
        <g id="document">
            <g id="Group" transform="translate(10.000000, 6.000000)">
                <mask id="mask-2" fill="white">
                    <use xlink:href="#path-1"></use>
                </mask>
                <use id="Mask" stroke="#7ABEE0" stroke-width="2" xlink:href="#path-1"></use>
                <path d="M17,-3 L32,12 L21.0000202,12 C18.7908701,12 17,10.2055487 17,7.99997976 L17,-3 Z" id="Rectangle-218" stroke="#7ABEE0" stroke-width="2" mask="url(#mask-2)"></path>
                <rect id="Rectangle-234" fill="#7ABEE0" mask="url(#mask-2)" x="6" y="17" width="17" height="2"></rect>
                <rect id="Rectangle-234" fill="#7ABEE0" mask="url(#mask-2)" x="6" y="21" width="17" height="2"></rect>
                <rect id="Rectangle-234" fill="#7ABEE0" mask="url(#mask-2)" x="6" y="25" width="17" height="2"></rect>
            </g>
        </g>
    </g>
</svg>