<?xml version="1.0" encoding="UTF-8" standalone="no"?>
<svg width="14px" height="14px" viewBox="0 0 14 14" version="1.1" xmlns="http://www.w3.org/2000/svg" xmlns:xlink="http://www.w3.org/1999/xlink">
    <!-- Generator: Sketch 3.6.1 (26313) - http://www.bohemiancoding.com/sketch -->
    <title>search</title>
    <desc>Created with Sketch.</desc>
    <defs></defs>
    <g id="Page-1" stroke="none" stroke-width="1" fill="none" fill-rule="evenodd">
        <g id="search" fill="#9A9DA7">
            <path d="M3.6,6.2 C3.6,7.22716049 3.88888889,8.17407407 4.40246914,8.97654321 L1.33703704,12.0259259 C0.887654321,12.4753086 0.887654321,13.2135802 1.33703704,13.662963 C1.5617284,13.8876543 1.85061728,14 2.15555556,14 C2.44444444,14 2.74938272,13.8876543 2.97407407,13.662963 L6.02345679,10.5975309 C6.82592593,11.1111111 7.77283951,11.4 8.8,11.4 C11.6728395,11.4 14,9.07283951 14,6.2 C14,3.32716049 11.6728395,1 8.8,1 C5.92716049,1 3.6,3.32716049 3.6,6.2 Z M8.8,9.26666667 C7.11049383,9.26666667 5.73333333,7.88950617 5.73333333,6.2 C5.73333333,4.51049383 7.11049383,3.13333333 8.8,3.13333333 C10.4895062,3.13333333 11.8666667,4.51049383 11.8666667,6.2 C11.8666667,7.88950617 10.4895062,9.26666667 8.8,9.26666667 L8.8,9.26666667 Z" transform="translate(7.500000, 7.500000) scale(-1, 1) translate(-7.500000, -7.500000) "></path>
        </g>
    </g>
</svg>