<?xml version="1.0" encoding="UTF-8" standalone="no"?>
<svg width="20px" height="20px" viewBox="0 0 20 20" version="1.1" xmlns="http://www.w3.org/2000/svg" xmlns:xlink="http://www.w3.org/1999/xlink" xmlns:sketch="http://www.bohemiancoding.com/sketch/ns">
    <!-- Generator: Sketch 3.5.2 (25235) - http://www.bohemiancoding.com/sketch -->
    <title>search</title>
    <desc>Created with Sketch.</desc>
    <defs></defs>
    <g id="Page-1" stroke="none" stroke-width="1" fill="none" fill-rule="evenodd" sketch:type="MSPage">
        <g id="search" sketch:type="MSArtboardGroup" fill="#000000">
            <path d="M5,8 C5,9.18518519 5.33333333,10.2777778 5.92592593,11.2037037 L2.38888889,14.7222222 C1.87037037,15.2407407 1.87037037,16.0925926 2.38888889,16.6111111 C2.64814815,16.8703704 2.98148148,17 3.33333333,17 C3.66666667,17 4.01851852,16.8703704 4.27777778,16.6111111 L7.7962963,13.0740741 C8.72222222,13.6666667 9.81481481,14 11,14 C14.3148148,14 17,11.3148148 17,8 C17,4.68518519 14.3148148,2 11,2 C7.68518519,2 5,4.68518519 5,8 Z M11,12 C8.7962963,12 7,10.2037037 7,8 C7,5.7962963 8.7962963,4 11,4 C13.2037037,4 15,5.7962963 15,8 C15,10.2037037 13.2037037,12 11,12 L11,12 Z" sketch:type="MSShapeGroup" transform="translate(9.500000, 9.500000) scale(-1, 1) translate(-9.500000, -9.500000) "></path>
        </g>
    </g>
</svg>