<?xml version="1.0" encoding="UTF-8" standalone="no"?>
<svg width="24px" height="24px" viewBox="0 0 24 24" version="1.1" xmlns="http://www.w3.org/2000/svg" xmlns:xlink="http://www.w3.org/1999/xlink" xmlns:sketch="http://www.bohemiancoding.com/sketch/ns">
    <!-- Generator: Sketch 3.5.2 (25235) - http://www.bohemiancoding.com/sketch -->
    <title>category-mathematics</title>
    <desc>Created with Sketch.</desc>
    <defs></defs>
    <g id="Page-1" stroke="none" stroke-width="1" fill="none" fill-rule="evenodd" sketch:type="MSPage">
        <g id="category-mathematics" sketch:type="MSArtboardGroup" fill="#121212">
            <path d="M8.19365609,5 C5.36227045,5 4,6.6293823 4,9.35392321 L5.97662771,9.35392321 C6.0033389,7.77796327 6.64440735,6.92320534 8.08681135,6.92320534 L8.43405676,6.92320534 L7.12520868,17.8480801 L9.55592654,17.8480801 L10.7312187,6.92320534 L13.9098497,6.92320534 L13.9098497,14.9899833 C13.9098497,17.2337229 14.951586,18.1686144 16.8747913,18.1686144 C18.5041736,18.1686144 19.3322204,17.5542571 20,16.245409 L18.7712855,15.0166945 C18.4240401,15.7111853 18.1035058,16.2186978 17.3555927,16.2186978 C16.6343907,16.2186978 16.3405676,15.7378965 16.3405676,14.6694491 L16.3405676,6.92320534 L19.1986644,6.92320534 L19.1986644,5 L8.19365609,5 Z" id="π" sketch:type="MSShapeGroup"></path>
        </g>
    </g>
</svg>