<?xml version="1.0" encoding="UTF-8" standalone="no"?>
<svg width="20px" height="20px" viewBox="0 0 20 20" version="1.1" xmlns="http://www.w3.org/2000/svg" xmlns:xlink="http://www.w3.org/1999/xlink" xmlns:sketch="http://www.bohemiancoding.com/sketch/ns">
    <!-- Generator: Sketch 3.5.2 (25235) - http://www.bohemiancoding.com/sketch -->
    <title>document</title>
    <desc>Created with Sketch.</desc>
    <defs></defs>
    <g id="Page-1" stroke="none" stroke-width="1" fill="none" fill-rule="evenodd" sketch:type="MSPage">
        <g id="document" sketch:type="MSArtboardGroup" stroke="#000000">
            <path d="M16,6.33333333 C16,6.24074074 15.962963,6.16666667 15.9074074,6.09259259 L11.9074074,2.09259259 C11.8333333,2.03703704 11.7592593,2 11.6666667,2 L5,2 C4.44444444,2 4,2.44444444 4,3 L4,16 C4,16.5555556 4.44444444,17 5,17 L15,17 C15.5555556,17 16,16.5555556 16,16 L16,6.33333333 Z" stroke-width="0.9" sketch:type="MSShapeGroup"></path>
            <rect id="Rectangle-1" sketch:type="MSShapeGroup" x="6" y="6" width="5" height="1"></rect>
            <rect id="Rectangle-1" sketch:type="MSShapeGroup" x="6" y="9" width="8" height="1"></rect>
            <rect id="Rectangle-1" sketch:type="MSShapeGroup" x="6" y="11" width="8" height="1"></rect>
            <rect id="Rectangle-1" sketch:type="MSShapeGroup" x="6" y="13" width="8" height="1"></rect>
        </g>
    </g>
</svg>