<?xml version="1.0" encoding="UTF-8" standalone="no"?>
<svg width="20px" height="20px" viewBox="0 0 20 20" version="1.1" xmlns="http://www.w3.org/2000/svg" xmlns:xlink="http://www.w3.org/1999/xlink" xmlns:sketch="http://www.bohemiancoding.com/sketch/ns">
    <!-- Generator: Sketch 3.5.2 (25235) - http://www.bohemiancoding.com/sketch -->
    <title>notifications</title>
    <desc>Created with Sketch.</desc>
    <defs></defs>
    <g id="Page-1" stroke="none" stroke-width="1" fill="none" fill-rule="evenodd" sketch:type="MSPage">
        <g id="notifications" sketch:type="MSArtboardGroup" fill="#000000">
            <path d="M8.3327156,16.3333709 C8.3327156,17.2592993 9.07345828,18.000042 9.99938663,18.000042 C10.925315,18.000042 11.6660577,17.2592993 11.6660577,16.3333709 L8.3327156,16.3333709 Z M17.980889,14.7963299 C18.0179262,14.6666999 17.9994076,14.5185513 17.9068148,14.4259585 L14.9993997,11.537062 L14.9993997,7.00001311 C14.9993997,4.24074662 12.7586531,2 9.99938663,2 C7.24012014,2 4.99937352,4.24074662 4.99937352,7.00001311 L4.99937352,11.537062 L2.09195849,14.4259585 C1.99936565,14.5185513 1.98084709,14.6666999 2.01788422,14.7963299 C2.07343992,14.9259598 2.20306989,15.0000341 2.33269986,15.0000341 L17.6660734,15.0000341 C17.7957034,15.0000341 17.9253333,14.9259598 17.980889,14.7963299 L17.980889,14.7963299 Z" id="bell" sketch:type="MSShapeGroup"></path>
        </g>
    </g>
</svg>